<svg xmlns="http://www.w3.org/2000/svg" viewBox="0 0 700 800" data-map-editor="1">
  <metadata id="map-editor">{"version":1,"shapes":[{"kind":"walk","points":[[349,178],[387,178],[387,193],[360,193],[360,406],[387,406],[387,424],[446,424],[446,152],[457,152],[457,219],[491,219],[491,237],[457,237],[457,356],[462,356],[462,372],[457,372],[457,406],[465,406],[465,424],[491,424],[491,439],[360,439],[360,611],[349,611]]}]}</metadata>
  <rect width="700" height="800" fill="#ffffff"/>
  <path d="M611 451L611 440L439 440L439 309L424 309L424 335L406 335L406 343L372 343L372 338L356 338L356 343L237 343L237 309L219 309L219 343L152 343L152 354L424 354L424 413L406 413L406 440L193 440L193 413L178 413L178 451Z" fill="#caffd1" stroke="#13ae67" stroke-width="8" stroke-linejoin="round"/>
  <path d="M611 451L611 440L439 440L439 309L424 309L424 335L406 335L406 343L372 343L372 338L356 338L356 343L237 343L237 309L219 309L219 343L152 343L152 354L424 354L424 413L406 413L406 440L193 440L193 413L178 413L178 451Z" fill="#caffd1"/>
</svg>
